FDS_states
version=1
nRows=4
nColumns=142
inDegrees=yes

# SIMM Motion File Header:
name FDS_states
datacolumns 142
datarows 4
otherdata 1
range 3.11831313692232381385 3.12151371352268958148
endheader
time	/jointset/groundthorax/r_z/value	/jointset/groundthorax/r_z/speed	/jointset/sternoclavicular/sternoclavicular_r2/value	/jointset/sternoclavicular/sternoclavicular_r2/speed	/jointset/sternoclavicular/sternoclavicular_r3/value	/jointset/sternoclavicular/sternoclavicular_r3/speed	/jointset/unrotscap/unrotscap_r3/value	/jointset/unrotscap/unrotscap_r3/speed	/jointset/unrotscap/unrotscap_r2/value	/jointset/unrotscap/unrotscap_r2/speed	/jointset/acromioclavicular/acromioclavicular_r2/value	/jointset/acromioclavicular/acromioclavicular_r2/speed	/jointset/acromioclavicular/acromioclavicular_r3/value	/jointset/acromioclavicular/acromioclavicular_r3/speed	/jointset/acromioclavicular/acromioclavicular_r1/value	/jointset/acromioclavicular/acromioclavicular_r1/speed	/jointset/unrothum/unrothum_r1/value	/jointset/unrothum/unrothum_r1/speed	/jointset/unrothum/unrothum_r3/value	/jointset/unrothum/unrothum_r3/speed	/jointset/unrothum/unrothum_r2/value	/jointset/unrothum/unrothum_r2/speed	/jointset/shoulder0/elv_angle/value	/jointset/shoulder0/elv_angle/speed	/jointset/shoulder1/shoulder_elv/value	/jointset/shoulder1/shoulder_elv/speed	/jointset/shoulder1/shoulder1_r2/value	/jointset/shoulder1/shoulder1_r2/speed	/jointset/shoulder2/shoulder_rot/value	/jointset/shoulder2/shoulder_rot/speed	/jointset/elbow/elbow_flexion/value	/jointset/elbow/elbow_flexion/speed	/jointset/radioulnar/pro_sup/value	/jointset/radioulnar/pro_sup/speed	/jointset/radiocarpal/deviation/value	/jointset/radiocarpal/deviation/speed	/jointset/radiocarpal/flexion/value	/jointset/radiocarpal/flexion/speed	/jointset/wrist_hand/wrist_hand_r1/value	/jointset/wrist_hand/wrist_hand_r1/speed	/jointset/wrist_hand/wrist_hand_r3/value	/jointset/wrist_hand/wrist_hand_r3/speed	/forceset/DELT1/activation	/forceset/DELT1/fiber_length	/forceset/DELT2/activation	/forceset/DELT2/fiber_length	/forceset/DELT3/activation	/forceset/DELT3/fiber_length	/forceset/SUPSP/activation	/forceset/SUPSP/fiber_length	/forceset/INFSP/activation	/forceset/INFSP/fiber_length	/forceset/SUBSC/activation	/forceset/SUBSC/fiber_length	/forceset/TMIN/activation	/forceset/TMIN/fiber_length	/forceset/TMAJ/activation	/forceset/TMAJ/fiber_length	/forceset/PECM1/activation	/forceset/PECM2/activation	/forceset/PECM2/fiber_length	/forceset/PECM3/activation	/forceset/PECM3/fiber_length	/forceset/LAT1/activation	/forceset/LAT1/fiber_length	/forceset/LAT2/activation	/forceset/LAT2/fiber_length	/forceset/LAT3/activation	/forceset/LAT3/fiber_length	/forceset/CORB/activation	/forceset/CORB/fiber_length	/forceset/TRIlong/activation	/forceset/TRIlong/fiber_length	/forceset/TRIlat/activation	/forceset/TRIlat/fiber_length	/forceset/TRImed/activation	/forceset/TRImed/fiber_length	/forceset/ANC/activation	/forceset/ANC/fiber_length	/forceset/SUP/activation	/forceset/SUP/fiber_length	/forceset/BIClong/activation	/forceset/BIClong/fiber_length	/forceset/BICshort/activation	/forceset/BICshort/fiber_length	/forceset/BRA/activation	/forceset/BRA/fiber_length	/forceset/BRD/activation	/forceset/BRD/fiber_length	/forceset/ECRL/activation	/forceset/ECRL/fiber_length	/forceset/ECRB/activation	/forceset/ECRB/fiber_length	/forceset/ECU/activation	/forceset/ECU/fiber_length	/forceset/FCR/activation	/forceset/FCR/fiber_length	/forceset/FCU/activation	/forceset/FCU/fiber_length	/forceset/PL/activation	/forceset/PL/fiber_length	/forceset/PT/activation	/forceset/PT/fiber_length	/forceset/PQ/activation	/forceset/PQ/fiber_length	/forceset/FDSL/activation	/forceset/FDSL/fiber_length	/forceset/FDSR/activation	/forceset/FDSR/fiber_length	/forceset/FDSM/activation	/forceset/FDSM/fiber_length	/forceset/FDSI/activation	/forceset/FDSI/fiber_length	/forceset/FDPL/activation	/forceset/FDPL/fiber_length	/forceset/FDPR/activation	/forceset/FDPR/fiber_length	/forceset/FDPM/activation	/forceset/FDPM/fiber_length	/forceset/FDPI/activation	/forceset/FDPI/fiber_length	/forceset/EDCL/activation	/forceset/EDCL/fiber_length	/forceset/EDCR/activation	/forceset/EDCR/fiber_length	/forceset/EDCM/activation	/forceset/EDCM/fiber_length	/forceset/EDCI/activation	/forceset/EDCI/fiber_length	/forceset/EDM/activation	/forceset/EDM/fiber_length	/forceset/EIP/activation	/forceset/EIP/fiber_length	/forceset/EPL/activation	/forceset/EPL/fiber_length	/forceset/EPB/activation	/forceset/EPB/fiber_length	/forceset/FPL/activation	/forceset/FPL/fiber_length	/forceset/APL/activation	/forceset/APL/fiber_length
      3.11831313692232381385	     10.00000027731964280520	      0.00000000193935030485	     -7.61489345361707670179	     11.11275388128608376803	      3.22530946356051773094	     -4.70683805071047256519	     -3.22530946356957315402	      4.70683805070515681734	      7.61489345361774727650	    -11.11275388128471597327	     -1.54186102551182058207	      2.25010661015759927395	     12.46077844886517560496	    -18.18457013415604706097	      5.60103415498194223687	     -8.17383912516704391749	     -5.60103415497881140794	      8.17383912516858579522	    -12.46077844885947172315	     18.18457013415867606909	      1.54186102549995163180	     -2.25010661016332447204	     47.28086052068279343530	    -71.03906052185261899012	     31.46643134793244556136	    -45.92036766131996472495	    -47.28086052068035627372	     71.03906052185425323842	      1.88950907344464114068	    -19.52840448615743440541	     69.10101165321098903860	     89.04902366627952403633	     18.66303670805580239289	     -6.90542885822115248828	      0.00000000137914770643	      0.00000000000722743189	      0.00000000001887604633	      0.00000000001661752836	      0.00000010551104054853	     -0.00000000095655650928	      0.00000000091522031338	      0.00000000079299623067	      0.09699647626258363353	      0.10641602314859650857	      0.20752572574472799571	      0.08720820545354118769	      0.02200000002480657565	      0.13136325065150214475	      0.06802446096116634977	      0.06479627772549630127	      0.12330031786028104734	      0.07592863554790769964	      0.02063469110381022445	      0.07985287191149825770	      0.02380386053150700815	      0.06511865759360604966	      0.05718498031536229514	      0.13975309493407125916	      0.02000000000000430253	      0.02000000000000603725	      0.10383082763183915098	      0.02000000000000686298	      0.08117787005959918589	      0.02000000000027650840	      0.17996369524093297487	      0.02000000000046215851	      0.14762638805470937320	      0.02000000000017611301	      0.21193313823206169633	      0.02000048492718792259	      0.07103553028225773058	      0.02000000000035457789	      0.17626203290923875278	      0.02000000000000197800	      0.09742314697389507783	      0.02000000000000201963	      0.09236602678485014706	      0.02248014954325575077	      0.01743243336616360356	      0.02000000005883708146	      0.03578404163136577470	      0.07625423741222521479	      0.12614034857208417106	      0.02000000000000000042	      0.14294914543835066101	      0.09769841576077814560	      0.07617431488809617290	      0.09354851328299068625	      0.15431292578848540553	      0.08362215339682059490	      0.07295882753260579667	      0.06011829286053919918	      0.05994346633541057512	      0.06014304093395117512	      0.06850903244377459789	      0.02000000000000000042	      0.05495528837200197581	      0.02000000000000000042	      0.03893447044009215596	      0.02000000000000000042	      0.05552795530992309103	      0.08870816999641605027	      0.04504078633915790247	      0.02523932579105440249	      0.02419340818347418334	      0.02200000013004606639	      0.04084437502548071697	      0.02000000000000000042	      0.06294692766158585528	      0.02000000000000000042	      0.07232705640903623612	      0.02000000000000000042	      0.08453757063470833388	      0.02000000000000000042	      0.07408858402056454906	      0.02000000000000000042	      0.07795780613847971829	      0.02000000000000000042	      0.07417626618169149977	      0.02000000000000000042	      0.07373572176889681140	      0.02400014064918465015	      0.07957252486034767369	      0.05044986782339844905	      0.06742271424401721780	      0.03762466805776529949	      0.07942644217433775244	      0.02720258726309120190	      0.07285552853019879038	      0.02658654430826197512	      0.07831441598624902523	      0.02404235773593790121	      0.06581465912181180822	      0.02400000028414275843	      0.06258382051608608887	      0.02000000000000000042	      0.06764417275228111481	      0.02000000000000000042	      0.05968005991104417124	      0.02000000000000000042	      0.07039142965686617792
      3.11937999578911240306	     10.00000027732171226091	      0.00000000194330021858	     -7.60304024249348842091	     11.10798447773524699755	      3.22028900276964558103	     -4.70481795646995770710	     -3.22028900277870633317	      4.70481795646456557591	      7.60304024249416077197	    -11.10798447773384545201	     -1.53946099137215552943	      2.24914090295566104771	     12.44138221717549086520	    -18.17676562824374286720	      5.59231568232648257322	     -8.17033105347182342371	     -5.59231568232334996793	      8.17033105347334398516	    -12.44138221716978698339	     18.17676562824641806060	      1.53946099136028080601	     -2.24914090296134894231	     47.20502272650222863604	    -71.13131123301307923157	     31.41745124645831666044	    -45.90065942635683882145	    -47.20502272649979147445	     71.13131123301471347986	      1.86868352583939278944	    -19.51219443303591205563	     69.19594869830233108132	     88.92590904263997231283	     18.65563441487327267509	     -6.97272245594903861132	      0.00000000137915542241	      0.00000000000724292957	      0.00000000001889379184	      0.00000000001665950342	      0.00000010551001898805	     -0.00000000095850809866	      0.00000000091606668274	      0.00000000079377088533	      0.09664802967452869320	      0.10646355562890802426	      0.20809968449005175617	      0.08721642284408449852	      0.02200000002445642172	      0.13133150032251689199	      0.06817256223247657176	      0.06479534294395095095	      0.12310723759707863090	      0.07592733870770682070	      0.02062576652394521384	      0.07985316872320849524	      0.02377827102723954755	      0.06511232934566268948	      0.05660895684249887816	      0.13972623058335792434	      0.02000000000000424355	      0.02000000000000595399	      0.10384255116755165826	      0.02000000000000676584	      0.08117816320766019222	      0.02000000000027262609	      0.17993953647805974172	      0.02000000000045567064	      0.14759258013099457729	      0.02000000000017363930	      0.21189590963600699047	      0.02000047812052851981	      0.07104251635706616830	      0.02000000000034959924	      0.17626893261128351309	      0.02000000000000195025	      0.09745555495913518773	      0.02000000000000199188	      0.09239836687088939793	      0.02247336304735814139	      0.01745120554398071899	      0.02000000005801121777	      0.03578310304758579308	      0.07623894805000253072	      0.12608869156766325248	      0.02000000000000000042	      0.14288626397061543472	      0.09756943011152567624	      0.07614327324339562053	      0.09343382837979058442	      0.15420480922831425463	      0.08342410507332505276	      0.07292181676996760398	      0.06004037881638735197	      0.05994393826108568302	      0.06013832390734984157	      0.06851638867143816647	      0.02000000000000000042	      0.05493339981984687176	      0.02000000000000000042	      0.03891591329638334484	      0.02000000000000000042	      0.05550326478942289865	      0.08863329531815918039	      0.04502149147401011270	      0.02522167440148734979	      0.02419438820196689877	      0.02200000012821042364	      0.04082174018754762546	      0.02000000000000000042	      0.06292807452205483043	      0.02000000000000000042	      0.07232732220799049927	      0.02000000000000000042	      0.08453787819095558154	      0.02000000000000000042	      0.07408875481021776066	      0.02000000000000000042	      0.07795798843532732170	      0.02000000000000000042	      0.07417650318961406530	      0.02000000000000000042	      0.07373599233632215089	      0.02400013865278016051	      0.07957490539583668421	      0.05049149773829201410	      0.06742603456936577255	      0.03761408120245210429	      0.07943041294241644235	      0.02720243386147613157	      0.07285836178296295484	      0.02658565229701826196	      0.07831994174203449344	      0.02404175643118608430	      0.06581463791082295400	      0.02400000028010957839	      0.06258361148507587957	      0.02000000000000000042	      0.06764417275228112869	      0.02000000000000000042	      0.05968005991104413654	      0.02000000000000000042	      0.07039142965686617792
      3.12044685465590099227	     10.00000027732378704570	      0.00000000194516763264	     -7.59119222507520596821	     11.10301152355055442911	      3.21527074178721061770	     -4.70271164778797601258	     -3.21527074179627758710	      4.70271164778260342132	      7.59119222507588009563	    -11.10301152354907650022	     -1.53706200885216692775	      2.24813398089088822829	     12.42199448430611674610	    -18.16862803830773387403	      5.58360102983226003204	     -8.16667326280026628638	     -5.58360102982912565039	      8.16667326280180461140	    -12.42199448430040931157	     18.16862803831040196201	      1.53706200884028598708	     -2.24813398089655214207	     47.12908615182332994209	    -71.22421565464331649764	     31.36849260652825321927	    -45.88011007495711623960	    -47.12908615182089278051	     71.22421565464495074593	      1.84787544065626874179	    -19.49606946436406929024	     69.29075476234558550459	     88.80360844532690123287	     18.64816213976731518187	     -7.03329995469716795498	      0.00000000137916315649	      0.00000000000725476903	      0.00000000001891157262	      0.00000000001667991515	      0.00000010550899657922	     -0.00000000095885042307	      0.00000000091691376156	      0.00000000079443838717	      0.09628823706355887913	      0.10651103782306706180	      0.20872862657627530569	      0.08722489949594135206	      0.02200000002411121175	      0.13129974738668495626	      0.06837224569960956289	      0.06479451791072453337	      0.12291287826544805561	      0.07592604476951747561	      0.02061696765397637646	      0.07985347556524499679	      0.02375304631669362607	      0.06510599356877658228	      0.05604490370595462123	      0.13969720970337246024	      0.02000000000000418457	      0.02000000000000587072	      0.10385426930732294393	      0.02000000000000667216	      0.08117846605434710094	      0.02000000000026879929	      0.17991537847078875600	      0.02000000000044927298	      0.14755878041332548545	      0.02000000000017120375	      0.21185869946884361426	      0.02000047140941062576	      0.07104948993085651032	      0.02000000000034469344	      0.17627575100182846235	      0.02000000000000192249	      0.09748789425527644437	      0.02000000000000196412	      0.09243063850512604762	      0.02246667259848037640	      0.01746993977105223625	      0.02000000005719694551	      0.03578215608183978741	      0.07622341769972398873	      0.12603705624537683838	      0.02000000000000000042	      0.14282338279958245453	      0.09744118420333987285	      0.07611223435660328940	      0.09332094762614823180	      0.15409671440942890319	      0.08324548660855653204	      0.07288497755481448959	      0.05996847044961275963	      0.05994448013780010603	      0.06013555422010807838	      0.06852373141806120116	      0.02000000000000000042	      0.05491153580889464314	      0.02000000000000000042	      0.03889736196833383508	      0.02000000000000000042	      0.05547859232472695384	      0.08856329220791103740	      0.04500222142294249550	      0.02520427526034179494	      0.02419537776810075369	      0.02200000012640069072	      0.04079911933077774028	      0.02000000000000000042	      0.06290923554887707658	      0.02000000000000000042	      0.07232758992511699458	      0.02000000000000000042	      0.08453818792192013820	      0.02000000000000000042	      0.07408892682420276099	      0.02000000000000000042	      0.07795817203599289535	      0.02000000000000000042	      0.07417674188258482904	      0.02000000000000000042	      0.07373626484675940840	      0.02400013668471307274	      0.07957726540207313293	      0.05052158908993013842	      0.06742932974815718516	      0.03760453802642536175	      0.07943439542280512911	      0.02720274314037626762	      0.07286117763089237920	      0.02658478437221138344	      0.07832544528316717769	      0.02404116366345927791	      0.06581461633865265393	      0.02400000027613364423	      0.06258340098832178289	      0.02000000000000000042	      0.06764417275228112869	      0.02000000000000000042	      0.05968005991104406716	      0.02000000000000000042	      0.07039142965686613629
      3.12151371352268958148	     10.00000027732586360685	      0.00000000194835546497	     -7.57934960427720483267	     11.09787238968517009141	      3.21025476655842068041	     -4.70053495323648462545	     -3.21025476656749342297	      4.70053495323111203419	      7.57934960427788073645	    -11.09787238968369216252	     -1.53466411903800969974	      2.24709341082116997868	     12.40261558230090521704	    -18.16021851703134259992	      5.57489034675070360692	     -8.16289324086263512470	     -5.57489034674756744892	      8.16289324086415923887	    -12.40261558229519600616	     18.16021851703404266232	      1.53466411902612298590	     -2.24709341082678992763	     47.05305008972928959565	    -71.31787031730682713260	     31.31955626663201641691	    -45.85887403220123559322	    -47.05305008972685243407	     71.31787031730843295918	      1.82708487235878003219	    -19.47887961889455255005	     69.38543068859965501360	     88.68180234526596450451	     18.64062536253824475807	     -7.09707703403220513394	      0.00000000137917091072	      0.00000000000728628222	      0.00000000001892939698	      0.00000000001674105684	      0.00000010550797331524	     -0.00000000095966048467	      0.00000000091776156005	      0.00000000079518214107	      0.09574156178233077241	      0.10655881408004162780	      0.21059212997645665455	      0.08723289831309731512	      0.02200000002377087288	      0.13126799375514835999	      0.06931043272415074452	      0.06479318474503381609	      0.12266870579408968578	      0.07592477989228778312	      0.02060829271707089252	      0.07985379315973219205	      0.02372818114932802314	      0.06509965046134633115	      0.05551485272194865705	      0.13967066127039767798	      0.02000000000000412559	      0.02000000000000578745	      0.10386598156514334490	      0.02000000000000657849	      0.08117877843175388963	      0.02000000000026502800	      0.17989122166154944416	      0.02000000000044296553	      0.14752498922589329933	      0.02000000000016879942	      0.21182150842257163603	      0.02000046479249316736	      0.07105645114677015817	      0.02000000000033985356	      0.17628248778762700688	      0.02000000000000189473	      0.09752016507497482389	      0.02000000000000193637	      0.09246284188495666745	      0.02246007683376987155	      0.01748863593334116368	      0.02000000005639410508	      0.03578120051405928037	      0.07620273932602714129	      0.12598544949847351182	      0.02000000000000000042	      0.14276050148812063911	      0.09729861867413576448	      0.07608120971102039221	      0.09320816276374661868	      0.15398864337827605775	      0.08339947156911206583	      0.07284804177721687646	      0.05995032889778518365	      0.05994503873395444493	      0.06019784226585091907	      0.06853100747201361365	      0.02000000000000000042	      0.05488969626677812907	      0.02000000000000000042	      0.03887881641551932388	      0.02000000000000000042	      0.05545393785386333596	      0.08853419569236481435	      0.04498295526132189276	      0.02518712473896650428	      0.02419637675536043600	      0.02200000012461650334	      0.04077651240084703005	      0.02000000000000000042	      0.06289041066522804702	      0.02000000000000000042	      0.07232785965803580075	      0.02000000000000000042	      0.08453849996354739771	      0.02000000000000000042	      0.07408910012872815809	      0.02000000000000000042	      0.07795835701308542753	      0.02000000000000000042	      0.07417698235656308703	      0.02000000000000000042	      0.07373653939647140110	      0.02400013474458115997	      0.07957960495243801557	      0.05052057233849126944	      0.06743264795892829622	      0.03761853361575632354	      0.07943835663176727901	      0.02720943451038881217	      0.07286396489534059662	      0.02658405387993635627	      0.07833092643161113089	      0.02404057931152533967	      0.06581459439391497412	      0.02400000027221414756	      0.06258318894116689235	      0.02000000000000000042	      0.06764417275228114257	      0.02000000000000000042	      0.05968005991104406716	      0.02000000000000000042	      0.07039142965686612241
